# xmcd CD database file
#
# Track frame offsets:
#	150
#	15426
#	31428
#	52936
#	65180
#	78191
#	89978
#	110544
#	123069
#	137941
#	153486
#
# Disc length: 2239 seconds
#
# Revision: 0
# Processed by: cddbd v1.5.1PL0 Copyright (c) Steve Scherf et al.
# Submitted via: CDex 1.51
#
DISCID=9008bd0b
DTITLE=Rubber Duck - For Drinks And Tips
DYEAR=1900
DGENRE=Country
TTITLE0=Cowboy Band
TTITLE1=Oklahoma Borderline
TTITLE2=Mr. Bojangles
TTITLE3=Be My Baby tonight
TTITLE4=Irish Fiddle
TTITLE5=Hello Josephine
TTITLE6=Love will keep us alive
TTITLE7=Mule Skinner Blues
TTITLE8=Dueling Fiddle
TTITLE9=Honkey Tonk Blues
TTITLE10=Tulsa Time
EXTD=
EXTT0=
EXTT1=
EXTT2=
EXTT3=
EXTT4=
EXTT5=
EXTT6=
EXTT7=
EXTT8=
EXTT9=
EXTT10=
PLAYORDER=
